# xmcd CD database file
#
# Track frame offsets:
#	150
#	13165
#	26102
#	40690
#	51565
#	66452
#	78790
#	92815
#	106087
#	122137
#	135602
#	149027
#	165302
#	179215
#	192152
#	207677
#	220690
#	233477
#	248027
#	264262
#	278775
#	290662
#	304650
#	318977
#
# Disc length: 4440 seconds
#
# Revision: 0
# Processed by: cddbd v1.5.1PL0 Copyright (c) Steve Scherf et al.
# Submitted via: CDex 1.51
#
DISCID=68115618
DTITLE=Ramona - Ramona and Her Grand Piano
DYEAR=1998
DGENRE=Jazz
TTITLE0=I Can't Give You Anything But Love, Baby
TTITLE1=I Hate To Think That You'll Grow Old, Baby
TTITLE2=The Beat O' My Heart
TTITLE3=You Excite Me
TTITLE4=Annie Doesn't Live Here Anymore
TTITLE5=Broadway's Gone Hill-Billy
TTITLE6=Are You Makin' Any Money
TTITLE7=I Lay Me Down To Sleep
TTITLE8=Not For All The Rice In China
TTITLE9=A Penny For Your Thoughts
TTITLE10=Barrel-House Music
TTITLE11=Come Up And See Me Sometime
TTITLE12=I'm No Angel
TTITLE13=I Found A New Way To Go To Town
TTITLE14=New Orleans
TTITLE15=Ah, The Moon Is Here
TTITLE16=Tony's Wife
TTITLE17=No Strings
TTITLE18=Every Now And Then
TTITLE19=We're Out Of The Red
TTITLE20=Never Had An Education
TTITLE21=Raisin' The Rent
TTITLE22=Anything Goes
TTITLE23=The Heart Is Quicker Than The Eye
EXTD=YEAR: 1998
EXTT0=
EXTT1=
EXTT2=
EXTT3=
EXTT4=
EXTT5=
EXTT6=
EXTT7=
EXTT8=
EXTT9=
EXTT10=
EXTT11=
EXTT12=
EXTT13=
EXTT14=
EXTT15=
EXTT16=
EXTT17=
EXTT18=
EXTT19=
EXTT20=
EXTT21=
EXTT22=
EXTT23=
PLAYORDER=
